<svg xmlns="http://www.w3.org/2000/svg" xmlns:xlink="http://www.w3.org/1999/xlink" contentStyleType="text/css" height="472px" preserveAspectRatio="none" style="width:434px;height:472px;background:#FFFFFF;" version="1.1" viewBox="0 0 434 472" width="434px" zoomAndPan="magnify"><defs/><g><rect fill="none" height="133.6641" style="stroke:#000000;stroke-width:1.5;" width="418.5" x="10" y="169.8281"/><line style="stroke:#181818;stroke-width:0.5;stroke-dasharray:5.0,5.0;" x1="43" x2="43" y1="36.2969" y2="437.0234"/><line style="stroke:#181818;stroke-width:0.5;stroke-dasharray:5.0,5.0;" x1="196.5" x2="196.5" y1="36.2969" y2="437.0234"/><line style="stroke:#181818;stroke-width:0.5;stroke-dasharray:5.0,5.0;" x1="386.5" x2="386.5" y1="36.2969" y2="437.0234"/><rect fill="#E2E2F0" height="30.2969" rx="2.5" ry="2.5" style="stroke:#181818;stroke-width:0.5;" width="46" x="20" y="5"/><text fill="#000000" font-family="sans-serif" font-size="14" lengthAdjust="spacing" textLength="32" x="27" y="24.9951">User</text><rect fill="#E2E2F0" height="30.2969" rx="2.5" ry="2.5" style="stroke:#181818;stroke-width:0.5;" width="46" x="20" y="436.0234"/><text fill="#000000" font-family="sans-serif" font-size="14" lengthAdjust="spacing" textLength="32" x="27" y="456.0186">User</text><rect fill="#E2E2F0" height="30.2969" rx="2.5" ry="2.5" style="stroke:#181818;stroke-width:0.5;" width="35" x="179.5" y="5"/><text fill="#000000" font-family="sans-serif" font-size="14" lengthAdjust="spacing" textLength="21" x="186.5" y="24.9951">API</text><rect fill="#E2E2F0" height="30.2969" rx="2.5" ry="2.5" style="stroke:#181818;stroke-width:0.5;" width="35" x="179.5" y="436.0234"/><text fill="#000000" font-family="sans-serif" font-size="14" lengthAdjust="spacing" textLength="21" x="186.5" y="456.0186">API</text><rect fill="#E2E2F0" height="30.2969" rx="2.5" ry="2.5" style="stroke:#181818;stroke-width:0.5;" width="63" x="355.5" y="5"/><text fill="#000000" font-family="sans-serif" font-size="14" lengthAdjust="spacing" textLength="49" x="362.5" y="24.9951">Worker</text><rect fill="#E2E2F0" height="30.2969" rx="2.5" ry="2.5" style="stroke:#181818;stroke-width:0.5;" width="63" x="355.5" y="436.0234"/><text fill="#000000" font-family="sans-serif" font-size="14" lengthAdjust="spacing" textLength="49" x="362.5" y="456.0186">Worker</text><polygon fill="#181818" points="185,63.4297,195,67.4297,185,71.4297,189,67.4297" style="stroke:#181818;stroke-width:1.0;"/><line style="stroke:#181818;stroke-width:1.0;" x1="43" x2="191" y1="67.4297" y2="67.4297"/><text fill="#000000" font-family="sans-serif" font-size="13" lengthAdjust="spacing" textLength="130" x="50" y="62.3638">POST freetextImport</text><polygon fill="#181818" points="375,92.5625,385,96.5625,375,100.5625,379,96.5625" style="stroke:#181818;stroke-width:1.0;"/><line style="stroke:#181818;stroke-width:1.0;" x1="197" x2="381" y1="96.5625" y2="96.5625"/><text fill="#000000" font-family="sans-serif" font-size="13" lengthAdjust="spacing" textLength="166" x="204" y="91.4966">POST /jobs/freeTextImport</text><polygon fill="#181818" points="208,121.6953,198,125.6953,208,129.6953,204,125.6953" style="stroke:#181818;stroke-width:1.0;"/><line style="stroke:#181818;stroke-width:1.0;" x1="202" x2="386" y1="125.6953" y2="125.6953"/><text fill="#000000" font-family="sans-serif" font-size="13" lengthAdjust="spacing" textLength="80" x="214" y="120.6294">200 &lt;jobid&gt;</text><polygon fill="#181818" points="54,150.8281,44,154.8281,54,158.8281,50,154.8281" style="stroke:#181818;stroke-width:1.0;"/><line style="stroke:#181818;stroke-width:1.0;" x1="48" x2="196" y1="154.8281" y2="154.8281"/><text fill="#000000" font-family="sans-serif" font-size="13" lengthAdjust="spacing" textLength="114" x="60" y="149.7622">303 /jobs/&lt;jobid&gt;</text><path d="M10,169.8281 L87,169.8281 L87,176.9609 L77,186.9609 L10,186.9609 L10,169.8281 " fill="#EEEEEE" style="stroke:#000000;stroke-width:1.5;"/><rect fill="none" height="133.6641" style="stroke:#000000;stroke-width:1.5;" width="418.5" x="10" y="169.8281"/><text fill="#000000" font-family="sans-serif" font-size="13" font-weight="bold" lengthAdjust="spacing" textLength="32" x="25" y="182.895">loop</text><text fill="#000000" font-family="sans-serif" font-size="11" font-weight="bold" lengthAdjust="spacing" textLength="124" x="102" y="182.0386">["Until successful"]</text><polygon fill="#181818" points="185,204.0938,195,208.0938,185,212.0938,189,208.0938" style="stroke:#181818;stroke-width:1.0;"/><line style="stroke:#181818;stroke-width:1.0;" x1="43" x2="191" y1="208.0938" y2="208.0938"/><text fill="#000000" font-family="sans-serif" font-size="13" lengthAdjust="spacing" textLength="115" x="50" y="203.0278">GET /jobs/&lt;jobid&gt;</text><polygon fill="#181818" points="375,233.2266,385,237.2266,375,241.2266,379,237.2266" style="stroke:#181818;stroke-width:1.0;"/><line style="stroke:#181818;stroke-width:1.0;" x1="197" x2="381" y1="237.2266" y2="237.2266"/><text fill="#000000" font-family="sans-serif" font-size="13" lengthAdjust="spacing" textLength="115" x="204" y="232.1606">GET /jobs/&lt;jobid&gt;</text><polygon fill="#181818" points="208,262.3594,198,266.3594,208,270.3594,204,266.3594" style="stroke:#181818;stroke-width:1.0;"/><line style="stroke:#181818;stroke-width:1.0;" x1="202" x2="386" y1="266.3594" y2="266.3594"/><text fill="#000000" font-family="sans-serif" font-size="13" lengthAdjust="spacing" textLength="81" x="214" y="261.2935">503 retry: 5s</text><polygon fill="#181818" points="54,291.4922,44,295.4922,54,299.4922,50,295.4922" style="stroke:#181818;stroke-width:1.0;"/><line style="stroke:#181818;stroke-width:1.0;" x1="48" x2="196" y1="295.4922" y2="295.4922"/><text fill="#000000" font-family="sans-serif" font-size="13" lengthAdjust="spacing" textLength="81" x="60" y="290.4263">503 retry: 5s</text><polygon fill="#181818" points="185,327.625,195,331.625,185,335.625,189,331.625" style="stroke:#181818;stroke-width:1.0;"/><line style="stroke:#181818;stroke-width:1.0;" x1="43" x2="191" y1="331.625" y2="331.625"/><text fill="#000000" font-family="sans-serif" font-size="13" lengthAdjust="spacing" textLength="115" x="50" y="326.5591">GET /jobs/&lt;jobid&gt;</text><polygon fill="#181818" points="375,356.7578,385,360.7578,375,364.7578,379,360.7578" style="stroke:#181818;stroke-width:1.0;"/><line style="stroke:#181818;stroke-width:1.0;" x1="197" x2="381" y1="360.7578" y2="360.7578"/><text fill="#000000" font-family="sans-serif" font-size="13" lengthAdjust="spacing" textLength="115" x="204" y="355.6919">GET /jobs/&lt;jobid&gt;</text><polygon fill="#181818" points="208,385.8906,198,389.8906,208,393.8906,204,389.8906" style="stroke:#181818;stroke-width:1.0;"/><line style="stroke:#181818;stroke-width:1.0;" x1="202" x2="386" y1="389.8906" y2="389.8906"/><text fill="#000000" font-family="sans-serif" font-size="13" lengthAdjust="spacing" textLength="105" x="214" y="384.8247">200 &lt;jobresult&gt;</text><polygon fill="#181818" points="54,415.0234,44,419.0234,54,423.0234,50,419.0234" style="stroke:#181818;stroke-width:1.0;"/><line style="stroke:#181818;stroke-width:1.0;" x1="48" x2="196" y1="419.0234" y2="419.0234"/><text fill="#000000" font-family="sans-serif" font-size="13" lengthAdjust="spacing" textLength="105" x="60" y="413.9575">200 &lt;jobresult&gt;</text><!--SRC=[XP312e9048Rl-nI3zr2IBX92XmXF2UtIFHt1sboPMQ7UlZKrQIcy3VpVVFCpYf5WbS8kpo21_7YIK16YnOVDxgqXA_h40MT3DwGH2Q_cmc4FoXaSY56Mm3gAOEkukamdX-BU44VnA9XYeOrf8L2DhJLmLnJ8N7Kw4F1U-IWFU-bj0dZrVY5UiOsxJsZfwKQU3KEvxn2RKeY52ei5_lo5a3jjlTzuuGi0]--></g></svg>
