<?xml version="1.0" encoding="UTF-8" standalone="no"?>
<!DOCTYPE svg PUBLIC "-//W3C//DTD SVG 1.1//EN"
 "http://www.w3.org/Graphics/SVG/1.1/DTD/svg11.dtd">
<!-- Generated by graphviz version 2.43.0 (0)
 -->
<!-- Title: classes Pages: 1 -->
<svg width="1805pt" height="455pt"
 viewBox="0.00 0.00 1804.50 455.00" xmlns="http://www.w3.org/2000/svg" xmlns:xlink="http://www.w3.org/1999/xlink">
<g id="graph0" class="graph" transform="scale(1 1) rotate(0) translate(4 451)">
<title>classes</title>
<polygon fill="white" stroke="transparent" points="-4,4 -4,-451 1800.5,-451 1800.5,4 -4,4"/>
<!-- workflows.Apperance -->
<g id="node1" class="node">
<title>workflows.Apperance</title>
<polygon fill="none" stroke="black" points="102,-0.5 102,-114.5 279,-114.5 279,-0.5 102,-0.5"/>
<text text-anchor="start" x="152.5" y="-99.3" font-family="Times,serif" font-size="14.00">Apperance</text>
<polyline fill="none" stroke="black" points="102,-91.5 279,-91.5 "/>
<text text-anchor="start" x="110" y="-76.3" font-family="Times,serif" font-size="14.00">cssClass : str</text>
<text text-anchor="start" x="110" y="-61.3" font-family="Times,serif" font-size="14.00">nodeUid : str | None</text>
<text text-anchor="start" x="110" y="-46.3" font-family="Times,serif" font-size="14.00">pos : Tuple[float, float]</text>
<text text-anchor="start" x="110" y="-31.3" font-family="Times,serif" font-size="14.00">typenode : bool</text>
<polyline fill="none" stroke="black" points="102,-23.5 279,-23.5 "/>
<text text-anchor="start" x="188" y="-8.3" font-family="Times,serif" font-size="14.00"> </text>
</g>
<!-- workflows.Node -->
<g id="node9" class="node">
<title>workflows.Node</title>
<polygon fill="none" stroke="black" points="0,-166.5 0,-295.5 381,-295.5 381,-166.5 0,-166.5"/>
<text text-anchor="start" x="171.5" y="-280.3" font-family="Times,serif" font-size="14.00">Node</text>
<polyline fill="none" stroke="black" points="0,-272.5 381,-272.5 "/>
<text text-anchor="start" x="44.5" y="-257.3" font-family="Times,serif" font-size="14.00">apperance</text>
<text text-anchor="start" x="44.5" y="-242.3" font-family="Times,serif" font-size="14.00">inputs : Dict[int, List[NodeConnection]]</text>
<text text-anchor="start" x="44.5" y="-227.3" font-family="Times,serif" font-size="14.00">n_inputs : int</text>
<text text-anchor="start" x="44.5" y="-212.3" font-family="Times,serif" font-size="14.00">n_outputs : int</text>
<text text-anchor="start" x="44.5" y="-197.3" font-family="Times,serif" font-size="14.00">outputs : Dict[int, List[NodeConnection]]</text>
<polyline fill="none" stroke="black" points="0,-189.5 381,-189.5 "/>
<text text-anchor="start" x="8" y="-174.3" font-family="Times,serif" font-size="14.00">check(with_warnings: bool): GraphValidationResult</text>
</g>
<!-- workflows.Apperance&#45;&gt;workflows.Node -->
<g id="edge8" class="edge">
<title>workflows.Apperance&#45;&gt;workflows.Node</title>
<path fill="none" stroke="black" d="M190.5,-114.66C190.5,-127.3 190.5,-140.91 190.5,-154.21"/>
<polygon fill="black" stroke="black" points="190.5,-154.29 194.5,-160.29 190.5,-166.29 186.5,-160.29 190.5,-154.29"/>
<text text-anchor="middle" x="228" y="-136.8" font-family="Times,serif" font-size="14.00" fill="green">apperance</text>
</g>
<!-- workflows.BlueprintGraph -->
<g id="node2" class="node">
<title>workflows.BlueprintGraph</title>
<polygon fill="none" stroke="black" points="399,-195.6 399,-266.4 780,-266.4 780,-195.6 399,-195.6"/>
<text text-anchor="start" x="533.5" y="-251.2" font-family="Times,serif" font-size="14.00">BlueprintGraph</text>
<polyline fill="none" stroke="black" points="399,-243.4 780,-243.4 "/>
<polyline fill="none" stroke="black" points="399,-218.6 780,-218.6 "/>
<text text-anchor="start" x="407" y="-203.4" font-family="Times,serif" font-size="14.00">check(with_warnings: bool): GraphValidationResult</text>
</g>
<!-- workflows.Graph -->
<g id="node5" class="node">
<title>workflows.Graph</title>
<polygon fill="none" stroke="black" points="470.5,-347.5 470.5,-446.5 708.5,-446.5 708.5,-347.5 470.5,-347.5"/>
<text text-anchor="start" x="567" y="-431.3" font-family="Times,serif" font-size="14.00">Graph</text>
<polyline fill="none" stroke="black" points="470.5,-423.5 708.5,-423.5 "/>
<text text-anchor="start" x="508.5" y="-408.3" font-family="Times,serif" font-size="14.00">frames : List[Frame]</text>
<text text-anchor="start" x="508.5" y="-393.3" font-family="Times,serif" font-size="14.00">nodes : Dict[int, Node]</text>
<text text-anchor="start" x="508.5" y="-378.3" font-family="Times,serif" font-size="14.00">root</text>
<polyline fill="none" stroke="black" points="470.5,-370.5 708.5,-370.5 "/>
<text text-anchor="start" x="478.5" y="-356.3" font-family="Times,serif" font-style="italic" font-size="14.00">check</text>
<text text-anchor="start" x="519.5" y="-356.3" font-family="Times,serif" font-size="14.00">(): GraphValidationResult</text>
</g>
<!-- workflows.BlueprintGraph&#45;&gt;workflows.Graph -->
<g id="edge1" class="edge">
<title>workflows.BlueprintGraph&#45;&gt;workflows.Graph</title>
<path fill="none" stroke="black" d="M589.5,-266.78C589.5,-287.17 589.5,-313.48 589.5,-337.03"/>
<polygon fill="none" stroke="black" points="586,-337.27 589.5,-347.27 593,-337.27 586,-337.27"/>
</g>
<!-- workflows.ConfigurationError -->
<g id="node3" class="node">
<title>workflows.ConfigurationError</title>
<polygon fill="none" stroke="black" points="703,-15.5 703,-99.5 856,-99.5 856,-15.5 703,-15.5"/>
<text text-anchor="start" x="711" y="-84.3" font-family="Times,serif" font-size="14.00">ConfigurationError</text>
<polyline fill="none" stroke="black" points="703,-76.5 856,-76.5 "/>
<text text-anchor="start" x="735.5" y="-61.3" font-family="Times,serif" font-size="14.00">context : str</text>
<text text-anchor="start" x="735.5" y="-46.3" font-family="Times,serif" font-size="14.00">node : str</text>
<polyline fill="none" stroke="black" points="703,-38.5 856,-38.5 "/>
<text text-anchor="start" x="777" y="-23.3" font-family="Times,serif" font-size="14.00"> </text>
</g>
<!-- workflows.GraphError -->
<g id="node6" class="node">
<title>workflows.GraphError</title>
<polygon fill="none" stroke="black" points="1197.5,-195.6 1197.5,-266.4 1297.5,-266.4 1297.5,-195.6 1197.5,-195.6"/>
<text text-anchor="start" x="1205.5" y="-251.2" font-family="Times,serif" font-size="14.00">GraphError</text>
<polyline fill="none" stroke="black" points="1197.5,-243.4 1297.5,-243.4 "/>
<polyline fill="none" stroke="black" points="1197.5,-218.6 1297.5,-218.6 "/>
<text text-anchor="start" x="1245" y="-203.4" font-family="Times,serif" font-size="14.00"> </text>
</g>
<!-- workflows.ConfigurationError&#45;&gt;workflows.GraphError -->
<g id="edge2" class="edge">
<title>workflows.ConfigurationError&#45;&gt;workflows.GraphError</title>
<path fill="none" stroke="black" d="M835.01,-99.78C844.8,-105.63 855.17,-111 865.5,-115 933.07,-141.14 1123.49,-132.07 1187.5,-166 1197.8,-171.46 1207.31,-179.38 1215.58,-187.8"/>
<polygon fill="none" stroke="black" points="1213.15,-190.32 1222.51,-195.28 1218.28,-185.57 1213.15,-190.32"/>
</g>
<!-- workflows.CyclicGraphError -->
<g id="node4" class="node">
<title>workflows.CyclicGraphError</title>
<polygon fill="none" stroke="black" points="874.5,-23 874.5,-92 1166.5,-92 1166.5,-23 874.5,-23"/>
<text text-anchor="start" x="957" y="-76.8" font-family="Times,serif" font-size="14.00">CyclicGraphError</text>
<polyline fill="none" stroke="black" points="874.5,-69 1166.5,-69 "/>
<text text-anchor="start" x="882.5" y="-53.8" font-family="Times,serif" font-size="14.00">cycle_path : List[Tuple[&#39;Node&#39;, &#39;Node&#39;]]</text>
<polyline fill="none" stroke="black" points="874.5,-46 1166.5,-46 "/>
<text text-anchor="start" x="1018" y="-30.8" font-family="Times,serif" font-size="14.00"> </text>
</g>
<!-- workflows.CyclicGraphError&#45;&gt;workflows.GraphError -->
<g id="edge3" class="edge">
<title>workflows.CyclicGraphError&#45;&gt;workflows.GraphError</title>
<path fill="none" stroke="black" d="M1080.53,-92.23C1113.47,-111.92 1154.26,-138.3 1187.5,-166 1195.49,-172.65 1203.48,-180.31 1210.9,-187.96"/>
<polygon fill="none" stroke="black" points="1208.7,-190.72 1218.12,-195.57 1213.78,-185.91 1208.7,-190.72"/>
</g>
<!-- workflows.MissingTrigger -->
<g id="node7" class="node">
<title>workflows.MissingTrigger</title>
<polygon fill="none" stroke="black" points="1184.5,-22.1 1184.5,-92.9 1310.5,-92.9 1310.5,-22.1 1184.5,-22.1"/>
<text text-anchor="start" x="1192.5" y="-77.7" font-family="Times,serif" font-size="14.00">MissingTrigger</text>
<polyline fill="none" stroke="black" points="1184.5,-69.9 1310.5,-69.9 "/>
<polyline fill="none" stroke="black" points="1184.5,-45.1 1310.5,-45.1 "/>
<text text-anchor="start" x="1245" y="-29.9" font-family="Times,serif" font-size="14.00"> </text>
</g>
<!-- workflows.MissingTrigger&#45;&gt;workflows.GraphError -->
<g id="edge4" class="edge">
<title>workflows.MissingTrigger&#45;&gt;workflows.GraphError</title>
<path fill="none" stroke="black" d="M1247.5,-93.21C1247.5,-119.71 1247.5,-156.43 1247.5,-185.16"/>
<polygon fill="none" stroke="black" points="1244,-185.35 1247.5,-195.35 1251,-185.35 1244,-185.35"/>
</g>
<!-- workflows.MultipleEdgesPerOutput -->
<g id="node8" class="node">
<title>workflows.MultipleEdgesPerOutput</title>
<polygon fill="none" stroke="black" points="1328.5,-23 1328.5,-92 1602.5,-92 1602.5,-23 1328.5,-23"/>
<text text-anchor="start" x="1376" y="-76.8" font-family="Times,serif" font-size="14.00">MultipleEdgesPerOutput</text>
<polyline fill="none" stroke="black" points="1328.5,-69 1602.5,-69 "/>
<text text-anchor="start" x="1336.5" y="-53.8" font-family="Times,serif" font-size="14.00">affected : Tuple[&#39;Node&#39;, List[&#39;Node&#39;]]</text>
<polyline fill="none" stroke="black" points="1328.5,-46 1602.5,-46 "/>
<text text-anchor="start" x="1463" y="-30.8" font-family="Times,serif" font-size="14.00"> </text>
</g>
<!-- workflows.MultipleEdgesPerOutput&#45;&gt;workflows.GraphError -->
<g id="edge5" class="edge">
<title>workflows.MultipleEdgesPerOutput&#45;&gt;workflows.GraphError</title>
<path fill="none" stroke="black" d="M1422.69,-92.18C1387.41,-119.93 1337.25,-159.39 1299.64,-188.98"/>
<polygon fill="none" stroke="black" points="1297.03,-186.58 1291.33,-195.52 1301.36,-192.09 1297.03,-186.58"/>
</g>
<!-- workflows.Node&#45;&gt;workflows.Graph -->
<g id="edge9" class="edge">
<title>workflows.Node&#45;&gt;workflows.Graph</title>
<path fill="none" stroke="black" d="M345.05,-295.52C383.09,-311.16 423.42,-327.74 460.13,-342.83"/>
<polygon fill="black" stroke="black" points="460.3,-342.9 467.37,-341.48 471.4,-347.46 464.33,-348.88 460.3,-342.9"/>
<text text-anchor="middle" x="441.5" y="-317.8" font-family="Times,serif" font-size="14.00" fill="green">root</text>
</g>
<!-- workflows.UnsupportedWorkflow -->
<g id="node10" class="node">
<title>workflows.UnsupportedWorkflow</title>
<polygon fill="none" stroke="black" points="1620.5,-23 1620.5,-92 1796.5,-92 1796.5,-23 1620.5,-23"/>
<text text-anchor="start" x="1628.5" y="-76.8" font-family="Times,serif" font-size="14.00">UnsupportedWorkflow</text>
<polyline fill="none" stroke="black" points="1620.5,-69 1796.5,-69 "/>
<text text-anchor="start" x="1665" y="-53.8" font-family="Times,serif" font-size="14.00">module : str</text>
<polyline fill="none" stroke="black" points="1620.5,-46 1796.5,-46 "/>
<text text-anchor="start" x="1706" y="-30.8" font-family="Times,serif" font-size="14.00"> </text>
</g>
<!-- workflows.UnsupportedWorkflow&#45;&gt;workflows.GraphError -->
<g id="edge6" class="edge">
<title>workflows.UnsupportedWorkflow&#45;&gt;workflows.GraphError</title>
<path fill="none" stroke="black" d="M1655.74,-92.06C1641.69,-100.21 1626.29,-108.45 1611.5,-115 1508.19,-160.73 1381.05,-196.55 1307.63,-215.38"/>
<polygon fill="none" stroke="black" points="1306.47,-212.07 1297.64,-217.93 1308.19,-218.85 1306.47,-212.07"/>
</g>
<!-- workflows.WorkflowGraph -->
<g id="node11" class="node">
<title>workflows.WorkflowGraph</title>
<polygon fill="none" stroke="black" points="798,-195.6 798,-266.4 1179,-266.4 1179,-195.6 798,-195.6"/>
<text text-anchor="start" x="933" y="-251.2" font-family="Times,serif" font-size="14.00">WorkflowGraph</text>
<polyline fill="none" stroke="black" points="798,-243.4 1179,-243.4 "/>
<polyline fill="none" stroke="black" points="798,-218.6 1179,-218.6 "/>
<text text-anchor="start" x="806" y="-203.4" font-family="Times,serif" font-size="14.00">check(with_warnings: bool): GraphValidationResult</text>
</g>
<!-- workflows.WorkflowGraph&#45;&gt;workflows.Graph -->
<g id="edge7" class="edge">
<title>workflows.WorkflowGraph&#45;&gt;workflows.Graph</title>
<path fill="none" stroke="black" d="M904.37,-266.58C850,-288.93 778.22,-318.43 716.92,-343.63"/>
<polygon fill="none" stroke="black" points="715.48,-340.43 707.57,-347.47 718.15,-346.91 715.48,-340.43"/>
</g>
</g>
</svg>
