<?xml version="1.0" encoding="UTF-8" standalone="no"?>
<!DOCTYPE svg PUBLIC "-//W3C//DTD SVG 1.1//EN"
 "http://www.w3.org/Graphics/SVG/1.1/DTD/svg11.dtd">
<!-- Generated by graphviz version 2.43.0 (0)
 -->
<!-- Title: packages Pages: 1 -->
<svg width="224pt" height="260pt"
 viewBox="0.00 0.00 224.00 260.00" xmlns="http://www.w3.org/2000/svg" xmlns:xlink="http://www.w3.org/1999/xlink">
<g id="graph0" class="graph" transform="scale(1 1) rotate(0) translate(4 256)">
<title>packages</title>
<polygon fill="white" stroke="transparent" points="-4,4 -4,-256 220,-256 220,4 -4,4"/>
<!-- workflows -->
<g id="node1" class="node">
<title>workflows</title>
<polygon fill="none" stroke="black" points="118,-108 29,-108 29,-72 118,-72 118,-108"/>
<text text-anchor="middle" x="73.5" y="-86.3" font-family="Times,serif" font-size="14.00">workflows</text>
</g>
<!-- workflows.modules -->
<g id="node4" class="node">
<title>workflows.modules</title>
<polygon fill="none" stroke="black" points="153,-180 0,-180 0,-144 153,-144 153,-180"/>
<text text-anchor="middle" x="76.5" y="-158.3" font-family="Times,serif" font-size="14.00">workflows.modules</text>
</g>
<!-- workflows&#45;&gt;workflows.modules -->
<g id="edge1" class="edge">
<title>workflows&#45;&gt;workflows.modules</title>
<path fill="none" stroke="black" d="M68.33,-108.3C67.86,-116.02 68.03,-125.29 68.74,-133.89"/>
<polygon fill="black" stroke="black" points="69.87,-143.9 64.28,-134.46 69.31,-138.93 68.75,-133.96 68.75,-133.96 68.75,-133.96 69.31,-138.93 73.22,-133.45 69.87,-143.9 69.87,-143.9"/>
</g>
<!-- workflows.execution -->
<g id="node2" class="node">
<title>workflows.execution</title>
<polygon fill="none" stroke="black" points="209.5,-252 47.5,-252 47.5,-216 209.5,-216 209.5,-252"/>
<text text-anchor="middle" x="128.5" y="-230.3" font-family="Times,serif" font-size="14.00">workflows.execution</text>
</g>
<!-- workflows.legacy -->
<g id="node3" class="node">
<title>workflows.legacy</title>
<polygon fill="none" stroke="black" points="216,-36 77,-36 77,0 216,0 216,-36"/>
<text text-anchor="middle" x="146.5" y="-14.3" font-family="Times,serif" font-size="14.00">workflows.legacy</text>
</g>
<!-- workflows.legacy&#45;&gt;workflows -->
<g id="edge2" class="edge">
<title>workflows.legacy&#45;&gt;workflows</title>
<path fill="none" stroke="black" d="M128.46,-36.3C119.44,-44.95 108.38,-55.55 98.56,-64.97"/>
<polygon fill="black" stroke="black" points="91.34,-71.9 95.44,-61.73 94.95,-68.44 98.56,-64.97 98.56,-64.97 98.56,-64.97 94.95,-68.44 101.67,-68.22 91.34,-71.9 91.34,-71.9"/>
</g>
<!-- workflows.legacy&#45;&gt;workflows.execution -->
<g id="edge3" class="edge">
<title>workflows.legacy&#45;&gt;workflows.execution</title>
<path fill="none" stroke="black" d="M152.18,-36.3C161.12,-66.21 176.01,-129.26 161.5,-180 158.79,-189.49 153.83,-198.94 148.57,-207.17"/>
<polygon fill="black" stroke="black" points="142.83,-215.57 144.75,-204.77 145.65,-211.44 148.47,-207.31 148.47,-207.31 148.47,-207.31 145.65,-211.44 152.18,-209.85 142.83,-215.57 142.83,-215.57"/>
</g>
<!-- workflows.legacy&#45;&gt;workflows.modules -->
<g id="edge4" class="edge">
<title>workflows.legacy&#45;&gt;workflows.modules</title>
<path fill="none" stroke="black" d="M145.33,-36.34C143.47,-54.99 138.69,-85.07 126.5,-108 120.95,-118.43 112.8,-128.31 104.68,-136.64"/>
<polygon fill="black" stroke="black" points="97.3,-143.84 101.32,-133.63 100.88,-140.35 104.46,-136.86 104.46,-136.86 104.46,-136.86 100.88,-140.35 107.6,-140.08 97.3,-143.84 97.3,-143.84"/>
</g>
<!-- workflows.modules&#45;&gt;workflows -->
<g id="edge5" class="edge">
<title>workflows.modules&#45;&gt;workflows</title>
<path fill="none" stroke="black" d="M81.66,-143.9C82.14,-136.21 81.98,-126.95 81.28,-118.33"/>
<polygon fill="black" stroke="black" points="80.16,-108.3 85.74,-117.74 80.71,-113.27 81.27,-118.24 81.27,-118.24 81.27,-118.24 80.71,-113.27 76.79,-118.74 80.16,-108.3 80.16,-108.3"/>
</g>
<!-- workflows.modules&#45;&gt;workflows.execution -->
<g id="edge6" class="edge">
<title>workflows.modules&#45;&gt;workflows.execution</title>
<path fill="none" stroke="black" d="M89.35,-180.3C95.53,-188.61 103.04,-198.72 109.82,-207.86"/>
<polygon fill="black" stroke="black" points="115.79,-215.9 106.22,-210.55 112.81,-211.88 109.83,-207.87 109.83,-207.87 109.83,-207.87 112.81,-211.88 113.44,-205.18 115.79,-215.9 115.79,-215.9"/>
</g>
</g>
</svg>
